<svg xmlns="http://www.w3.org/2000/svg" xmlns:xlink="http://www.w3.org/1999/xlink" viewBox="0,0,256,256" width="240px" height="240px" fill-rule="nonzero"><g fill-opacity="0" fill="#dddddd" fill-rule="nonzero" stroke="none" stroke-width="1" stroke-linecap="butt" stroke-linejoin="miter" stroke-miterlimit="10" stroke-dasharray="" stroke-dashoffset="0" font-family="none" font-weight="none" font-size="none" text-anchor="none" style="mix-blend-mode: normal"><path d="M0,256v-256h256v256z" id="bgRectangle"></path></g><g fill="none" fill-rule="nonzero" stroke="none" stroke-width="1" stroke-linecap="butt" stroke-linejoin="miter" stroke-miterlimit="10" stroke-dasharray="" stroke-dashoffset="0" font-family="none" font-weight="none" font-size="none" text-anchor="none" style="mix-blend-mode: normal"><g transform="scale(5.33333,5.33333)"><path d="M15.337,18.757l8.334,-4.811c0.204,-0.118 0.455,-0.118 0.659,0l8.341,4.816c0.203,0.117 0.329,0.335 0.329,0.57v9.632c0,0.235 -0.126,0.453 -0.329,0.57l-8.341,4.816c-0.204,0.118 -0.455,0.118 -0.659,0l-8.341,-4.816c-0.204,-0.117 -0.33,-0.335 -0.33,-0.57v-9.623c0,-0.241 0.129,-0.463 0.337,-0.584" fill="#7986cb"></path><path d="M45.362,23.151l-9.817,-17.078c-0.356,-0.618 -1.015,-1.073 -1.728,-1.073h-19.634c-0.713,0 -1.372,0.455 -1.729,1.073l-9.816,17.041c-0.357,0.618 -0.357,1.397 0,2.015l9.817,16.938c0.356,0.617 1.015,0.933 1.728,0.933h19.634c0.713,0 1.372,-0.306 1.728,-0.924l9.817,-16.966c0.357,-0.617 0.357,-1.341 0,-1.959M36.66,31.821l-12.304,7.099c-0.217,0.125 -0.484,0.125 -0.701,0l-12.315,-7.099c-0.21,-0.122 -0.34,-0.346 -0.34,-0.589v-14.169c0,-0.243 0.13,-0.468 0.341,-0.59l12.302,-7.098c0.217,-0.125 0.484,-0.125 0.701,0l12.289,7.084c0.227,0.132 0.367,0.374 0.367,0.637v14.136c0,0.243 -0.13,0.468 -0.34,0.589z" fill="#3949ab"></path></g></g></svg>