<svg xmlns="http://www.w3.org/2000/svg" xmlns:xlink="http://www.w3.org/1999/xlink" width="40" zoomAndPan="magnify" viewBox="0 0 30 30.000001" height="40" preserveAspectRatio="xMidYMid meet" version="1.0"><defs><clipPath id="667bae03e3"><path d="M 3.386719 12.339844 L 26.613281 12.339844 L 26.613281 16.695312 L 3.386719 16.695312 Z M 3.386719 12.339844 " clip-rule="nonzero"/></clipPath><clipPath id="e612e8734e"><path d="M 13.074219 2.902344 L 16.703125 2.902344 L 16.703125 26.128906 L 13.074219 26.128906 Z M 13.074219 2.902344 " clip-rule="nonzero"/></clipPath><clipPath id="b777aedd0a"><path d="M 1.121094 0.8125 L 28.699219 0.8125 L 28.699219 28.394531 L 1.121094 28.394531 Z M 1.121094 0.8125 " clip-rule="nonzero"/></clipPath></defs><g clip-path="url(#667bae03e3)"><path fill="#ffffff" d="M 3.386719 12.339844 L 26.660156 12.339844 L 26.660156 16.695312 L 3.386719 16.695312 Z M 3.386719 12.339844 " fill-opacity="1" fill-rule="nonzero"/></g><g clip-path="url(#e612e8734e)"><path fill="#ffffff" d="M 13.074219 2.902344 L 16.75 2.902344 L 16.75 26.175781 L 13.074219 26.175781 Z M 13.074219 2.902344 " fill-opacity="1" fill-rule="nonzero"/></g><g clip-path="url(#b777aedd0a)"><path fill="#000001" d="M 27.277344 10.757812 C 24.007812 10.757812 20.734375 10.757812 17.460938 10.757812 C 17.824219 11.125 18.1875 11.492188 18.550781 11.859375 C 18.550781 8.542969 18.550781 5.230469 18.550781 1.914062 C 18.550781 1.3125 18.054688 0.8125 17.460938 0.8125 C 15.65625 0.8125 13.851562 0.8125 12.042969 0.8125 C 11.449219 0.8125 10.957031 1.3125 10.957031 1.914062 C 10.957031 5.230469 10.957031 8.542969 10.957031 11.859375 C 11.320312 11.492188 11.683594 11.125 12.042969 10.757812 C 8.773438 10.757812 5.5 10.757812 2.226562 10.757812 C 1.632812 10.757812 1.136719 11.257812 1.136719 11.859375 C 1.136719 13.6875 1.136719 15.515625 1.136719 17.34375 C 1.136719 17.945312 1.632812 18.449219 2.226562 18.449219 C 5.5 18.449219 8.773438 18.449219 12.042969 18.449219 C 11.683594 18.082031 11.320312 17.710938 10.957031 17.34375 C 10.957031 20.660156 10.957031 23.972656 10.957031 27.289062 C 10.957031 27.890625 11.449219 28.390625 12.042969 28.390625 C 13.851562 28.390625 15.65625 28.390625 17.460938 28.390625 C 18.054688 28.390625 18.550781 27.890625 18.550781 27.289062 C 18.550781 23.972656 18.550781 20.660156 18.550781 17.34375 C 18.1875 17.710938 17.824219 18.082031 17.460938 18.449219 C 20.734375 18.449219 24.007812 18.449219 27.277344 18.449219 C 27.871094 18.449219 28.367188 17.945312 28.367188 17.34375 C 28.367188 15.515625 28.367188 13.6875 28.367188 11.859375 C 28.367188 10.4375 26.191406 10.4375 26.191406 11.859375 C 26.191406 13.6875 26.191406 15.515625 26.191406 17.34375 C 26.554688 16.976562 26.914062 16.609375 27.277344 16.242188 C 24.007812 16.242188 20.734375 16.242188 17.460938 16.242188 C 16.867188 16.242188 16.371094 16.742188 16.371094 17.34375 C 16.371094 20.660156 16.371094 23.972656 16.371094 27.289062 C 16.734375 26.921875 17.097656 26.554688 17.460938 26.183594 C 15.65625 26.183594 13.851562 26.183594 12.042969 26.183594 C 12.40625 26.554688 12.769531 26.921875 13.132812 27.289062 C 13.132812 23.972656 13.132812 20.660156 13.132812 17.34375 C 13.132812 16.742188 12.640625 16.242188 12.042969 16.242188 C 8.773438 16.242188 5.5 16.242188 2.226562 16.242188 C 2.589844 16.609375 2.953125 16.976562 3.316406 17.34375 C 3.316406 15.515625 3.316406 13.6875 3.316406 11.859375 C 2.953125 12.226562 2.589844 12.59375 2.226562 12.960938 C 5.5 12.960938 8.773438 12.960938 12.042969 12.960938 C 12.640625 12.960938 13.132812 12.460938 13.132812 11.859375 C 13.132812 8.542969 13.132812 5.230469 13.132812 1.914062 C 12.769531 2.285156 12.40625 2.652344 12.042969 3.019531 C 13.851562 3.019531 15.65625 3.019531 17.460938 3.019531 C 17.097656 2.652344 16.734375 2.285156 16.371094 1.914062 C 16.371094 5.230469 16.371094 8.542969 16.371094 11.859375 C 16.371094 12.460938 16.867188 12.960938 17.460938 12.960938 C 20.734375 12.960938 24.007812 12.960938 27.277344 12.960938 C 28.683594 12.960938 28.683594 10.757812 27.277344 10.757812 Z M 27.277344 10.757812 " fill-opacity="1" fill-rule="nonzero"/></g></svg>